<svg width="104.36246643066406px" height="126.59000549316406px" xmlns="http://www.w3.org/2000/svg" viewBox="197.81876678466796 11.704997253417972 104.36246643066406 126.59000549316406" style="background: rgba(0, 0, 0, 0);" preserveAspectRatio="xMidYMid"><defs><filter id="editing-extrusion" x="-100%" y="-100%" width="300%" height="300%"><feFlood result="color1" flood-color="#444"></feFlood><feConvolveMatrix order="8,8" divisor="1" kernelMatrix="1 0 0 0 0 0 0 0 0 1 0 0 0 0 0 0 0 0 1 0 0 0 0 0 0 0 0 1 0 0 0 0 0 0 0 0 1 0 0 0 0 0 0 0 0 1 0 0 0 0 0 0 0 0 1 0 0 0 0 0 0 0 0 1" in="SourceAlpha" result="extrude"></feConvolveMatrix><feComposite in="color1" in2="extrude" result="comp-extrude" operator="in"></feComposite><feOffset dx="4" dy="4" in="comp-extrude" result="offset-extrude"></feOffset><feMerge><feMergeNode in="offset-extrude"></feMergeNode><feMergeNode in="SourceGraphic"></feMergeNode></feMerge></filter></defs><g filter="url(#editing-extrusion)"><g transform="translate(219.53499847650528, 98.70999908447266)"><path d="M4.61-11.52L4.61-11.52L4.99-22.85L0.70-22.85L0.70-22.85Q0.19-22.85 0.19-23.23L0.19-23.23L0.19-23.23Q0.19-24.38 1.28-25.89L1.28-25.89L1.28-25.89Q2.37-27.39 3.65-27.39L3.65-27.39L4.99-27.39L4.99-27.39Q4.86-32.38 4.74-34.56L4.74-34.56L4.74-34.56Q4.48-38.46 3.46-40.58L3.46-40.58L3.14-41.22L3.14-41.22Q2.88-41.54 2.88-41.98L2.88-41.98L2.88-41.98Q2.88-42.43 3.58-42.75L3.58-42.75L3.58-42.75Q4.29-43.07 5.66-43.52L5.66-43.52L5.66-43.52Q7.04-43.97 11.52-44.70L11.52-44.70L11.52-44.70Q16-45.44 21.28-45.44L21.28-45.44L21.28-45.44Q26.56-45.44 27.04-44.67L27.04-44.67L27.04-44.67Q27.52-43.90 27.52-42.27L27.52-42.27L27.52-42.27Q27.52-40.64 27.07-40.64L27.07-40.64L27.07-40.64Q27.01-40.64 26.62-40.70L26.62-40.70L26.62-40.70Q25.60-40.96 23.49-40.96L23.49-40.96L23.49-40.96Q21.38-40.96 18.94-40.58L18.94-40.58L18.94-40.58Q16.51-40.19 15.23-39.81L15.23-39.81L14.02-39.36L14.02-39.36Q13.50-39.23 13.25-38.46L13.25-38.46L13.25-38.46Q12.74-34.69 12.74-27.39L12.74-27.39L23.10-27.39L23.10-27.39Q23.68-27.39 23.68-27.01L23.68-27.01L23.68-27.01Q23.68-25.86 22.66-24.32L22.66-24.32L22.66-24.32Q21.63-22.78 20.35-22.78L20.35-22.78L12.74-22.85L13.18-3.65L13.18-3.65Q13.18-2.24 12.74-1.60L12.74-1.60L12.74-1.60Q11.52 0 8.61 0.80L8.61 0.80L8.61 0.80Q5.70 1.60 3.78 1.60L3.78 1.60L3.78 1.60Q3.26 1.60 3.26 0.96L3.26 0.96L3.26 0.96Q3.26 0.64 3.33 0.45L3.33 0.45L3.33 0.45Q4.10-0.64 4.61-11.52ZM44.74-41.09L44.74-41.09L44.74-41.09Q42.43-41.09 40.90-39.42L40.90-39.42L40.90-39.42Q38.21-36.48 38.21-31.97L38.21-31.97L38.21-31.97Q38.21-27.46 40.51-26.56L40.51-26.56L40.51-26.56Q41.09-26.37 41.09-25.73L41.09-25.73L41.09-25.73Q41.09-23.81 39.81-22.50L39.81-22.50L39.81-22.50Q38.53-21.18 36.67-20.93L36.67-20.93L36.67-20.93Q36.10-20.93 36.10-20.48L36.10-20.48L36.10-20.48Q36.03-19.78 36.03-18.46L36.03-18.46L36.03-18.46Q36.03-17.15 36.16-15.58L36.16-15.58L36.16-15.58Q36.29-14.02 36.77-11.87L36.77-11.87L36.77-11.87Q37.25-9.73 38.05-8.16L38.05-8.16L38.05-8.16Q38.85-6.59 40.35-5.47L40.35-5.47L40.35-5.47Q41.86-4.35 44.26-4.35L44.26-4.35L44.26-4.35Q46.66-4.35 48.58-6.27L48.58-6.27L48.58-6.27Q50.50-8.19 51.26-11.26L51.26-11.26L51.26-11.26Q52.67-16.64 52.67-21.60L52.67-21.60L52.67-21.60Q52.67-26.56 52.03-30.34L52.03-30.34L52.03-30.34Q51.39-34.11 50.53-36.10L50.53-36.10L50.53-36.10Q49.66-38.08 48.45-39.30L48.45-39.30L48.45-39.30Q47.23-40.51 46.40-40.80L46.40-40.80L46.40-40.80Q45.57-41.09 44.74-41.09ZM33.09-34.75L33.09-34.75L33.34-35.14L33.34-35.14Q33.98-38.08 35.42-40.22L35.42-40.22L35.42-40.22Q36.86-42.37 38.30-43.42L38.30-43.42L38.30-43.42Q39.74-44.48 41.54-45.06L41.54-45.06L41.54-45.06Q43.90-45.82 45.70-45.82L45.70-45.82L45.70-45.82Q49.98-45.82 53.09-43.84L53.09-43.84L53.09-43.84Q56.19-41.86 57.79-38.46L57.79-38.46L57.79-38.46Q60.74-32 60.74-23.81L60.74-23.81L60.74-23.81Q60.74-10.05 54.34-3.78L54.34-3.78L54.34-3.78Q51.20-0.70 47.42 0.38L47.42 0.38L47.42 0.38Q45.06 1.09 42.88 1.09L42.88 1.09L42.88 1.09Q34.88 1.09 31.10-4.38L31.10-4.38L31.10-4.38Q27.33-9.86 27.33-18.24L27.33-18.24L27.33-18.24Q27.33-23.10 28.16-27.17L28.16-27.17L28.16-27.17Q28.99-31.23 29.89-32.90L29.89-32.90L30.72-34.56L30.72-34.56Q30.98-35.14 31.55-35.14L31.55-35.14L31.55-35.14Q32.13-35.14 32.42-35.04L32.42-35.04L32.42-35.04Q32.70-34.94 32.86-34.85L32.86-34.85L32.86-34.85Q33.02-34.75 33.09-34.75Z" fill="#ccc"></path></g></g><style>text {
  font-size: 64px;
  font-family: Arial Black;
  dominant-baseline: central;
  text-anchor: middle;
}</style></svg>